<?xml version="1.0" encoding="utf-8"?>
<!-- Generator: Adobe Illustrator 27.5.0, SVG Export Plug-In . SVG Version: 6.00 Build 0)  -->
<svg version="1.1" xmlns="http://www.w3.org/2000/svg" xmlns:xlink="http://www.w3.org/1999/xlink" x="0px" y="0px"
	 viewBox="0 0 3710 3710" style="enable-background:new 0 0 3710 3710;" xml:space="preserve">
<g id="Background">
	<g>
		<g>
			<rect style="fill:transparent;" width="3710" height="3710"/>
		</g>
	</g>
</g>
<g id="Illustration">
	<g>
		<linearGradient id="SVGID_1_" gradientUnits="userSpaceOnUse" x1="3623.1548" y1="4060.3018" x2="1136.6827" y2="972.2593">
			<stop  offset="0" style="stop-color:#B37CFF"/>
			<stop  offset="1" style="stop-color:#F895E7"/>
		</linearGradient>
		<path style="opacity:0.3;fill:url(#SVGID_1_);" d="M2955.902,2830.782c-58.034,59.487-112.944,97.849-156.329,128.158
			c-509.971,356.277-1113.401,252.424-1241.648,227.062c-189.379-37.451-555.445-109.844-820.104-412.885
			c-400.407-458.475-338.058-1180.789-27.475-1657.599c56.81-87.217,356.9-571.289,966.83-648.919
			c369.123-46.981,799.402,47.774,1110.998,301.957C3442.243,1302.112,3395.681,2379.985,2955.902,2830.782z"/>
		<g>
			<g>
				
					<linearGradient id="SVGID_00000067932228837961894560000010164315984989870267_" gradientUnits="userSpaceOnUse" x1="-1511.8188" y1="1441.0056" x2="-566.2162" y2="1441.0056" gradientTransform="matrix(-0.3391 0.9407 -0.9407 -0.3391 2637.5303 2370.8845)">
					<stop  offset="0" style="stop-color:#CE1567"/>
					<stop  offset="1" style="stop-color:#7A1DBC"/>
				</linearGradient>
				<path style="fill:url(#SVGID_00000067932228837961894560000010164315984989870267_);" d="M1042.777,1192.663
					c-11.483,10.476,167.109-22.081,299.577,18.236c132.467,40.317,365.089,91.015,538.357,26.713
					c173.268-64.303,229.677-182.791,164.736-381.126c-54.116-165.279-75.888-264.055-68.314-314.651
					c1.876-12.528-9.167-23.247-21.689-21.336c-66.653,10.174-225.54,49.591-268.326,196.527
					c-54.577,187.426-15.508,452.502-139.308,484.37c-123.799,31.869-176.279,3.126-224.133-11.776
					C1275.823,1174.718,1118.765,1123.337,1042.777,1192.663z"/>
				<path style="fill:#222669;" d="M1898.965,762.919c29.779,86.117,43.507,213.834-0.588,305.233
					c-61.288,117.504-160.393,174.769-279.941,182.397c-50.215,1.727-76.246,0.5-133.784-8.52c-4.594-0.72-3.164-8.712,1.482-8.453
					c27.991,1.56,57.145,3.621,88.543,2.3c200.028-1.469,273.921-131.9,279.483-136.005c2.916-10.823,66.024-60.061,52.058-235.911
					c-2.755-32.891-7.612-65.69-14.593-97.358l-0.039-0.176c-0.505-2.292,0.768-4.824,2.844-5.658
					C1896.352,759.997,1898.288,760.954,1898.965,762.919z"/>
			</g>
			<g>
				
					<linearGradient id="SVGID_00000148619380159732021690000002757855812885177741_" gradientUnits="userSpaceOnUse" x1="2705.863" y1="1916.9694" x2="3571.2002" y2="1916.9694" gradientTransform="matrix(0.9999 -0.0143 0.0143 0.9999 -2241.6653 -459.8658)">
					<stop  offset="0" style="stop-color:#CE1567"/>
					<stop  offset="1" style="stop-color:#7A1DBC"/>
				</linearGradient>
				<path style="fill:url(#SVGID_00000148619380159732021690000002757855812885177741_);" d="M1171.178,2270.197
					c0,0,8.843-371.801-162.405-471.312c-171.247-99.511-496.85-161.725-509.055-695.596
					c-7.146-312.552-14.879-449.205-20.063-508.792c-2.022-23.244,18.633-42.006,41.561-37.687
					c162.186,30.553,689.058,156.312,799.521,515.926C1451.692,1499.062,1171.178,2270.197,1171.178,2270.197z"/>
				<path style="fill:#222669;" d="M646.646,705.35c178.032,158.779,383.893,439.785,493.618,720.792
					c14.085,46.312,55.283,144.798,73.175,319.783c15.98,145.94,8.036,300.155-11.34,402.238c-1.225,6.454-7.45,10.692-13.903,9.467
					c-11.097-2.105-9.621-14.041-9.521-13.664c22.129-174.41,12.943-391.494-37.762-587.366
					c-64.78-240.508-209.266-473.689-358.711-671.46l-15.379-19.474c-115.784-148.694-140.159-149.79-129.335-160.155
					C640.043,703.063,644.045,703.041,646.646,705.35z"/>
			</g>
			<g>
				
					<linearGradient id="SVGID_00000115491686897149044870000004903623877083867791_" gradientUnits="userSpaceOnUse" x1="1298.3707" y1="1599.6823" x2="2068.2551" y2="1599.6823" gradientTransform="matrix(0.8801 0.4747 -0.4747 0.8801 470.731 -846.8922)">
					<stop  offset="0" style="stop-color:#2B3582"/>
					<stop  offset="1" style="stop-color:#150E42"/>
				</linearGradient>
				<path style="fill:url(#SVGID_00000115491686897149044870000004903623877083867791_);" d="M1154.576,2238.387
					c10.512,23.566,19.669-365.957,268.179-782.394c117.105-196.235,297.906-413.668,268.999-579.709
					c-24.059-138.191-340.328-327.492-445.749-387.108c-13.173-7.45-29.069,3.779-26.406,18.677
					c13.131,73.445,34.47,238.648-14.151,346.633c-64.086,142.332-15.596,307.329,66.08,409.179
					c81.677,101.85,120.245,166.737,37.011,363.808C1225.305,1824.544,1124.706,2171.426,1154.576,2238.387z"/>
				<path style="fill:#1F5AA9;" d="M1333.972,645.299c112.637,102.268,193.5,260.038,173.753,412.953l-1.95,14.537
					c-4.784,33.909-58.771,258.296-125.01,426.373c-0.827,2.095-3.195,3.124-5.29,2.299c-3.558-1.403-2.395-5.637-2.355-5.144
					c31.671-99.748,66.705-230.484,90.781-330.021c26.925-108.069,44.318-181.96,0.924-302.841
					c-49.802-132.743-135.617-213.729-135.392-213.447c-1.263-1.292-1.239-3.364,0.054-4.627
					C1330.729,644.167,1332.7,644.15,1333.972,645.299z"/>
			</g>
		</g>
		<g>
			<g>
				
					<linearGradient id="SVGID_00000043424274037508833370000003027651523343763857_" gradientUnits="userSpaceOnUse" x1="2171.7466" y1="1676.2661" x2="5320.0894" y2="-600.1255">
					<stop  offset="0" style="stop-color:#2B3582"/>
					<stop  offset="1" style="stop-color:#150E42"/>
				</linearGradient>
				<path style="fill:url(#SVGID_00000043424274037508833370000003027651523343763857_);" d="M630.183,1145.711v1295.14
					c0,106.542,84.901,193.669,191.409,196.416c473.048,12.198,1853.813,41.776,2304.123,35.137
					c77.397-1.14,140.095-63.076,142.328-140.449c8.683-300.879,22.786-1024.391-29.403-1360.29
					c-10.99-70.737-70.698-123.632-142.247-125.92c-396.355-12.68-1876.498-52.942-2326.598-42.833
					C692.168,1004.654,630.183,1068.064,630.183,1145.711z"/>
				
					<linearGradient id="SVGID_00000026853589416772010640000002830499777372085391_" gradientUnits="userSpaceOnUse" x1="3512.5664" y1="644.35" x2="570.5657" y2="2767.6479">
					<stop  offset="0" style="stop-color:#53D8FF"/>
					<stop  offset="1" style="stop-color:#3840F7"/>
				</linearGradient>
				<path style="fill:url(#SVGID_00000026853589416772010640000002830499777372085391_);" d="M711.449,1139.406v1230.472
					c0,62.206,49.934,112.892,112.133,113.822l2237.349,31.023c61.666,0.922,112.212-48.69,112.442-110.362l4.201-1219.479
					c0.165-44.097-34.967-80.228-79.051-81.301l-2297.149-51.938C752.067,1050.444,711.449,1090.086,711.449,1139.406z"/>
			</g>
			<path style="opacity:0.4;fill:#FFFFFF;" d="M888.712,1414.519l73.786,874.135c4.969,58.865,59.049,104.849,125.225,106.478
				l1848.943,45.506c70.339,1.731,129.288-47.066,132.574-109.742l45.676-870.98c3.377-64.391-53.17-118.715-125.432-120.501
				l-1968.405-48.66C944.536,1288.861,882.965,1346.431,888.712,1414.519z"/>
		</g>
		<g>
			<g>
				<g>
					
						<linearGradient id="SVGID_00000129914959048510625810000011205615611451055287_" gradientUnits="userSpaceOnUse" x1="2002.563" y1="3003.6404" x2="1994.8124" y2="1375.8035">
						<stop  offset="0" style="stop-color:#A737D5"/>
						<stop  offset="1" style="stop-color:#EF497A"/>
					</linearGradient>
					<path style="fill:url(#SVGID_00000129914959048510625810000011205615611451055287_);" d="M2311.462,1485.645l-578.635,25.04
						c6.828,24.819-45.566,1042.564-59.588,1312.182c-1.887,36.276,28.086,67.364,67.912,70.38l548.919,41.569
						c10.519,0.796,20.92-2.477,28.643-9.016c7.723-6.538,12.053-15.734,11.923-25.326L2311.462,1485.645z"/>
					
						<linearGradient id="SVGID_00000044865808021291563150000013685295876635058075_" gradientUnits="userSpaceOnUse" x1="83.7169" y1="1360.4845" x2="87.8454" y2="1657.7482" gradientTransform="matrix(1 0 0 1 2018.9021 0)">
						<stop  offset="0" style="stop-color:#A737D5"/>
						<stop  offset="1" style="stop-color:#EF497A"/>
					</linearGradient>
					<path style="fill:url(#SVGID_00000044865808021291563150000013685295876635058075_);" d="M2473.414,1317.223
						c-1.168-2.819-3.919-4.54-6.971-4.54h-476.505c-16.046,0-31.562,6.703-43.731,17.162l-213.38,184.339h578.281l160.67-187.728
						C2473.936,1324.3,2474.581,1320.043,2473.414,1317.223z"/>
					
						<linearGradient id="SVGID_00000062190619401457872840000004668972682935640482_" gradientUnits="userSpaceOnUse" x1="2469.5754" y1="4118.6567" x2="2469.5754" y2="1104.8644">
						<stop  offset="0" style="stop-color:#CB236D"/>
						<stop  offset="1" style="stop-color:#4C246D"/>
					</linearGradient>
					<path style="fill:url(#SVGID_00000062190619401457872840000004668972682935640482_);" d="M2502.537,2887.848l-213.369,46.968
						l20.942-1420.81l14.066-16.594l149.238-180.305l173.205,210.654l2.052-1.575l1.312,1285.717
						c0,13.474-8.99,25.602-22.731,30.664l-122.912,45.282H2502.537z"/>
					
						<linearGradient id="SVGID_00000051376791302895325670000005078440839466021796_" gradientUnits="userSpaceOnUse" x1="292.1266" y1="1668.8214" x2="123.7494" y2="923.7529" gradientTransform="matrix(1 0 0 1 2018.9021 0)">
						<stop  offset="0" style="stop-color:#A737D5"/>
						<stop  offset="1" style="stop-color:#EF497A"/>
					</linearGradient>
					<path style="fill:url(#SVGID_00000051376791302895325670000005078440839466021796_);" d="M2471.042,1263.457
						c-13.51-15.892-39.107-23.55-62.05-23.997c-127.773-2.491-255.536-5.662-383.302-8.502
						c-13.881-0.308-26.767,4.99-36.694,14.698c-9.927,9.708-14.988,23.007-14.988,36.891v29.9l499.94,4.658
						c0,0,2.202-6.029,2.203-6.032C2484.51,1290.663,2480.786,1274.918,2471.042,1263.457z"/>
				</g>
			</g>
			<g>
				<path style="fill:#FFFFFF;" d="M2301.018,2045.687l-4.485,0.278c-13.437,0.833-26.423-4.999-34.726-15.595l-90.872-115.962
					c-20.91-26.685-63.342-17.808-71.803,15.021l-36.768,142.664c-3.359,13.036-12.919,23.584-25.563,28.207l-138.367,50.589
					c-31.839,11.642-36.51,54.739-7.902,72.93l124.319,79.053c11.36,7.224,18.438,19.575,18.927,33.028l5.355,147.228
					c1.233,33.879,40.778,51.639,66.919,30.053l113.601-93.806c10.381-8.572,24.314-11.487,37.26-7.794l38.079,10.859
					L2301.018,2045.687z"/>
				
					<linearGradient id="SVGID_00000182505288142731915300000000722371298369284488_" gradientUnits="userSpaceOnUse" x1="2195.4255" y1="2419.8547" x2="1664.2809" y2="3223.3804" gradientTransform="matrix(0.9788 -0.2048 0.2048 0.9788 -406.6192 14.7676)">
					<stop  offset="0" style="stop-color:#FDF53F"/>
					<stop  offset="1" style="stop-color:#D93C65"/>
				</linearGradient>
				<path style="fill:url(#SVGID_00000182505288142731915300000000722371298369284488_);" d="M2300.622,2070.465l-2.559,0.158
					c-21.556,1.339-42.38-8.012-55.705-25.015l-90.871-115.961c-5.604-7.151-13.1-6.483-16.063-5.863
					c-2.962,0.62-10.097,3.012-12.365,11.81l-36.769,142.663c-5.391,20.917-20.721,37.831-41.004,45.245l-138.367,50.59
					c-8.533,3.121-10.213,10.456-10.539,13.466c-0.325,3.009-0.257,10.534,7.41,15.408l124.32,79.054
					c18.225,11.59,29.575,31.396,30.361,52.98l5.355,147.227c0.228,6.251,3.399,10.007,6.019,12.059
					c3.861,3.022,8.906,4.254,13.491,3.295c2.489-0.521,4.838-1.682,6.984-3.454l113.601-93.807
					c8.171-6.746,17.97-11.458,28.341-13.628c10.371-2.17,21.238-1.781,31.429,1.125l31.711,9.043L2300.622,2070.465z"/>
				<path style="fill:#FFFFFF;" d="M2072.027,2296.108c-1.529,0.32-3.156-0.357-3.974-1.787
					c-6.954-12.133-16.869-22.515-28.673-30.02l-47.297-30.076c-1.726-1.098-2.236-3.388-1.138-5.116
					c1.098-1.727,3.389-2.237,5.116-1.139l47.297,30.076c12.815,8.15,23.579,19.419,31.126,32.592
					c1.018,1.775,0.404,4.04-1.372,5.058C2072.764,2295.894,2072.399,2296.031,2072.027,2296.108z"/>
				<path style="fill:#FFFFFF;" d="M2173.746,2397.454c-1.304,0.273-2.712-0.169-3.619-1.268c-1.303-1.578-1.081-3.915,0.497-5.219
					l15.207-12.557c11.709-9.667,25.753-16.42,40.613-19.529c14.861-3.109,30.435-2.551,45.04,1.614
					c1.968,0.561,3.108,2.612,2.547,4.58c-0.56,1.969-2.612,3.109-4.58,2.548c-13.454-3.836-27.8-4.35-41.489-1.486
					c-13.689,2.864-26.626,9.084-37.412,17.989l-15.207,12.557C2174.865,2397.08,2174.316,2397.335,2173.746,2397.454z"/>
				<path style="fill:#FFFFFF;" d="M2300.285,2091.529l-0.921,0.057c-28.458,1.766-55.948-10.579-73.536-33.023l-47.09-60.091
					c-7.147-9.121-18.634-13.313-29.978-10.941s-20.185,10.818-23.078,22.04l-19.053,73.928
					c-7.117,27.613-27.353,49.941-54.131,59.73l-71.701,26.216c-5.646,2.063-10.465,5.64-13.935,10.339
					c-1.216,1.646-0.866,3.967,0.78,5.183c1.648,1.216,3.967,0.868,5.183-0.78c2.604-3.526,6.24-6.216,10.517-7.78l71.702-26.217
					c29.07-10.626,51.037-34.866,58.763-64.84l19.053-73.929c2.216-8.599,8.728-14.817,17.418-16.635
					c8.691-1.818,17.149,1.269,22.625,8.258l47.09,60.092c19.094,24.364,48.937,37.765,79.83,35.847l0.344-0.021L2300.285,2091.529z
					"/>
			</g>
		</g>
		<g>
			<g>
				
					<linearGradient id="SVGID_00000070118804422873147580000017242333876417768882_" gradientUnits="userSpaceOnUse" x1="3105.2478" y1="2369.7258" x2="1540.9735" y2="3633.1763">
					<stop  offset="0" style="stop-color:#B37CFF"/>
					<stop  offset="1" style="stop-color:#F895E7"/>
				</linearGradient>
				<path style="fill:url(#SVGID_00000070118804422873147580000017242333876417768882_);" d="M2390.401,2326.837l-0.685,618.046
					c6.398,48.778,40.44,89.592,87.29,104.605c95.72,30.672,279.122,61.675,547.328-10.553c46.562-12.539,91.59-49.429,91.59-97.648
					c0-345.083,5.243-551.851,5.243-551.851L2390.401,2326.837z"/>
				
					<linearGradient id="SVGID_00000007391230548867201720000004133214701117035669_" gradientUnits="userSpaceOnUse" x1="2550.3081" y1="2718.1052" x2="3015.6367" y2="2718.1052">
					<stop  offset="0" style="stop-color:#A737D5"/>
					<stop  offset="1" style="stop-color:#EF497A"/>
				</linearGradient>
				<path style="fill:url(#SVGID_00000007391230548867201720000004133214701117035669_);" d="M2877.222,2570.525
					c-65.296,0-130.591,0-195.889,0c-145.82,0-172.924,176.063-66.204,254.609c64.761,47.663,161.592,43.516,237.27,35.839
					c70.526-7.155,139.937-69.517,158.539-136.348C3035.018,2638.115,2962.934,2570.525,2877.222,2570.525z"/>
				<g>
					
						<linearGradient id="SVGID_00000151525239606000841720000007975303140568159406_" gradientUnits="userSpaceOnUse" x1="3039.0715" y1="2305.8787" x2="2540.4692" y2="3100.2048">
						<stop  offset="0" style="stop-color:#A737D5"/>
						<stop  offset="1" style="stop-color:#EF497A"/>
					</linearGradient>
					<path style="fill:url(#SVGID_00000151525239606000841720000007975303140568159406_);" d="M2767.751,2844.432
						c-0.005,0-0.005,0-0.009,0c-55.17,0-96.711-9.222-126.991-30.054c-45.981-31.648-66.921-83.291-52.104-130.95
						c13.966-44.928,55.334-70.105,110.659-70.105h165.161c43.996,0,83.159,16.106,104.762,45.073
						c16.679,22.37,21.034,48.589,12.593,76.945c-16.135,54.22-76.679,100.026-137.83,105.829
						C2821.2,2843.333,2794.631,2844.432,2767.751,2844.432z M2699.306,2621.883c-50.885,0-88.812,23.638-101.461,64.324
						c-13.557,43.611,5.878,91.856,48.37,121.096c28.615,19.698,68.37,28.569,121.527,28.569c0.005,0,0.005,0,0.009,0
						c26.461,0,52.757-1.909,75.329-4.049c57.526-5.46,114.417-49.287,129.516-100.013c7.538-25.328,3.701-48.449-11.088-68.284
						c-19.501-26.151-56.684-41.645-97.041-41.645H2699.306z"/>
				</g>
				<g>
					
						<linearGradient id="SVGID_00000077318266802821130200000014196793289252883870_" gradientUnits="userSpaceOnUse" x1="2757.6077" y1="2329.4199" x2="2757.6077" y2="2081.8491">
						<stop  offset="0" style="stop-color:#A737D5"/>
						<stop  offset="1" style="stop-color:#EF497A"/>
					</linearGradient>
					
						<ellipse style="fill:url(#SVGID_00000077318266802821130200000014196793289252883870_);" cx="2757.608" cy="2408.698" rx="392.452" ry="86.676"/>
					
						<linearGradient id="SVGID_00000173866302512209846060000006068556272233477267_" gradientUnits="userSpaceOnUse" x1="2759.3479" y1="2372.3916" x2="2759.3479" y2="1928.829">
						<stop  offset="0" style="stop-color:#A737D5"/>
						<stop  offset="1" style="stop-color:#EF497A"/>
					</linearGradient>
					<path style="fill:url(#SVGID_00000173866302512209846060000006068556272233477267_);" d="M2364.802,2408.698v-77.046
						l785.08,4.213c0,0,15.428,79.197-14.238,95.925C3105.98,2448.519,2364.802,2408.698,2364.802,2408.698z"/>
				</g>
				
					<linearGradient id="SVGID_00000026165695051108395330000001236258869926588056_" gradientUnits="userSpaceOnUse" x1="3342.927" y1="2036.2311" x2="2613.9375" y2="2404.165">
					<stop  offset="0" style="stop-color:#A737D5"/>
					<stop  offset="1" style="stop-color:#EF497A"/>
				</linearGradient>
				
					<ellipse style="fill:url(#SVGID_00000026165695051108395330000001236258869926588056_);" cx="2757.608" cy="2331.652" rx="392.452" ry="86.677"/>
				<g style="opacity:0.5;">
					
						<linearGradient id="SVGID_00000083774200542431489940000000897951273885536406_" gradientUnits="userSpaceOnUse" x1="2458.2515" y1="2329.2446" x2="3056.9646" y2="2329.2446">
						<stop  offset="0" style="stop-color:#CB236D"/>
						<stop  offset="1" style="stop-color:#4C246D"/>
					</linearGradient>
					<path style="fill:url(#SVGID_00000083774200542431489940000000897951273885536406_);" d="M2757.608,2387.833
						c-145.119,0-299.356-20.536-299.356-58.589c0-38.053,154.237-58.588,299.356-58.588s299.357,20.536,299.357,58.588
						C3056.965,2367.297,2902.727,2387.833,2757.608,2387.833z M2757.608,2280.287c-170.739,0-289.726,25.802-289.726,48.958
						c0,23.156,118.987,48.958,289.726,48.958c170.738,0,289.726-25.802,289.726-48.958
						C3047.334,2306.089,2928.346,2280.287,2757.608,2280.287z"/>
				</g>
			</g>
			<g>
				<path style="fill:#FFFFFF;" d="M2745.903,2659.434l23.588,80.825c2.156,7.385,7.807,13.238,15.113,15.649l79.954,26.39
					c18.398,6.073,21.847,30.606,5.836,41.516l-69.58,47.41c-6.358,4.332-10.177,11.515-10.213,19.209l-0.391,84.196
					c-0.09,19.375-22.357,30.236-37.681,18.379l-66.591-51.524c-6.085-4.708-14.097-6.121-21.425-3.777l-80.196,25.646
					c-18.454,5.902-35.665-11.919-29.124-30.157l28.425-79.254c2.597-7.242,1.465-15.298-3.028-21.544l-49.173-68.345
					c-11.315-15.727,0.316-37.602,19.681-37.017l84.159,2.543c7.69,0.232,15.002-3.334,19.553-9.538l49.805-67.886
					C2716.076,2636.534,2740.475,2640.835,2745.903,2659.434z"/>
				
					<linearGradient id="SVGID_00000111155739839495196110000014240745014018451083_" gradientUnits="userSpaceOnUse" x1="2745.782" y1="2492.0916" x2="2442.2288" y2="2951.3127" gradientTransform="matrix(0.9848 0.1736 -0.1736 0.9848 532.5252 -221.7555)">
					<stop  offset="0" style="stop-color:#FDF53F"/>
					<stop  offset="1" style="stop-color:#D93C65"/>
				</linearGradient>
				<path style="fill:url(#SVGID_00000111155739839495196110000014240745014018451083_);" d="M2765.222,2983.688
					c-1.431-0.252-2.794-0.874-4.052-1.847l-66.59-51.525c-4.79-3.705-10.473-6.22-16.436-7.271
					c-5.963-1.052-12.164-0.632-17.931,1.212l-80.197,25.647c-1.514,0.484-3.008,0.602-4.439,0.349
					c-2.637-0.465-5.052-2.19-6.459-4.613c-0.954-1.646-1.839-4.312-0.632-7.677l28.425-79.253
					c4.167-11.62,2.351-24.538-4.858-34.558l-49.174-68.346c-3.032-4.215-1.471-8.222-0.659-9.75
					c0.813-1.527,3.261-5.063,8.452-4.906l84.158,2.543c12.337,0.373,24.062-5.346,31.365-15.299l49.805-67.886
					c3.072-4.187,7.366-3.94,9.069-3.64c1.703,0.3,5.822,1.537,7.277,6.522l23.588,80.825c3.459,11.85,12.522,21.235,24.243,25.102
					l79.954,26.39c4.931,1.627,6.023,5.788,6.264,7.501c0.24,1.713,0.337,6.013-3.954,8.936l-69.58,47.41
					c-10.201,6.95-16.325,18.469-16.383,30.813l-0.391,84.196c-0.017,3.574-1.76,5.778-3.22,6.996
					C2770.718,2983.357,2767.859,2984.152,2765.222,2983.688z"/>
				<path style="fill:#FFFFFF;" d="M2612.363,2840.952c-0.88-0.155-1.599-0.859-1.73-1.792c-1.113-7.914-4.169-15.528-8.837-22.017
					l-18.708-26.002c-0.682-0.949-0.467-2.273,0.483-2.956c0.949-0.683,2.273-0.468,2.956,0.482l18.708,26.002
					c5.069,7.045,8.386,15.31,9.594,23.902c0.164,1.158-0.644,2.229-1.802,2.393
					C2612.799,2840.995,2612.576,2840.99,2612.363,2840.952z"/>
				<path style="fill:#FFFFFF;" d="M2644.811,2916.326c-0.75-0.132-1.404-0.666-1.651-1.441c-0.356-1.115,0.258-2.307,1.372-2.663
					l10.736-3.434c8.265-2.643,17.151-3.243,25.696-1.737c8.545,1.507,16.69,5.11,23.554,10.421
					c0.925,0.716,1.094,2.047,0.379,2.971c-0.715,0.926-2.047,1.095-2.971,0.379c-6.323-4.892-13.826-8.211-21.698-9.599
					c-7.872-1.387-16.057-0.834-23.67,1.6l-10.736,3.433C2645.483,2916.365,2645.137,2916.384,2644.811,2916.326z"/>
				<path style="fill:#FFFFFF;" d="M2744.024,2950.914c-1.636-0.289-3.242-0.821-4.77-1.598c-1.042-0.531-1.457-1.806-0.926-2.849
					c0.531-1.042,1.804-1.458,2.849-0.926c3.998,2.036,8.726,1.824,12.645-0.567c3.93-2.396,6.195-6.424,6.217-11.052l0.202-43.632
					c0.083-17.689,8.86-34.196,23.478-44.156l36.057-24.569c4.194-2.857,6.275-7.562,5.569-12.587
					c-0.706-5.026-4.005-8.975-8.823-10.565l-41.431-13.675c-16.799-5.543-29.786-18.991-34.743-35.973l-12.223-41.884
					c-1.422-4.871-5.254-8.305-10.251-9.186c-4.998-0.882-9.772,1.035-12.775,5.127L2679.289,2738
					c-10.465,14.264-27.268,22.46-44.949,21.924l-43.611-1.317c-2.601-0.079-5.101,0.576-7.232,1.895
					c-0.995,0.616-2.3,0.308-2.915-0.687c-0.616-0.995-0.308-2.3,0.687-2.915c2.839-1.757,6.155-2.63,9.589-2.526l43.61,1.318
					c16.287,0.492,31.765-7.057,41.406-20.197l25.809-35.178c3.918-5.34,10.403-7.943,16.926-6.793
					c6.522,1.15,11.726,5.814,13.582,12.172l12.223,41.883c4.566,15.644,16.53,28.031,32.004,33.138l41.432,13.675
					c6.289,2.076,10.768,7.44,11.691,13.998c0.922,6.559-1.905,12.95-7.379,16.678l-36.056,24.569
					c-13.466,9.175-21.551,24.38-21.627,40.675l-0.202,43.632c-0.028,6.041-3.112,11.517-8.247,14.649
					C2752.332,2950.845,2748.084,2951.629,2744.024,2950.914z"/>
			</g>
		</g>
		<g>
			<g>
				<g>
					
						<linearGradient id="SVGID_00000100350281189845916920000013186276022447283639_" gradientUnits="userSpaceOnUse" x1="1612.6689" y1="2260.7231" x2="1612.2098" y2="2348.4004">
						<stop  offset="0" style="stop-color:#FDF53F"/>
						<stop  offset="1" style="stop-color:#D93C65"/>
					</linearGradient>
					<polygon style="fill:url(#SVGID_00000100350281189845916920000013186276022447283639_);" points="1550.171,2294.815 
						1675.031,2294.815 1675.031,2252.555 1550.171,2252.555 					"/>
					
						<linearGradient id="SVGID_00000034796830516087939540000004195165980746673303_" gradientUnits="userSpaceOnUse" x1="-3544.4282" y1="2131.512" x2="-2879.4434" y2="3091.2852" gradientTransform="matrix(-1 0 0 1 -1488.8451 0)">
						<stop  offset="0" style="stop-color:#CB236D"/>
						<stop  offset="1" style="stop-color:#4C246D"/>
					</linearGradient>
					<path style="fill:url(#SVGID_00000034796830516087939540000004195165980746673303_);" d="M1522.97,2302.429
						c-135.358,174.077-253.754,486.739-151.795,694.968c8.488,17.334,30.961,28.806,55.975,28.806h385.474
						c24.799-6.73,43.087-17.636,56.8-30.585c99.237-93.711,30.097-361.732-149.23-670.831c0.142-9.949-4.306-19.638-12.616-27.481
						c-11.297-10.663-28.633-16.897-46.993-16.897h-85.937C1553.313,2280.408,1533.575,2288.791,1522.97,2302.429z"/>
					
						<linearGradient id="SVGID_00000152947346112348621210000001326347869305808056_" gradientUnits="userSpaceOnUse" x1="1642.4363" y1="2125.1484" x2="1562.7344" y2="2422.6082">
						<stop  offset="0" style="stop-color:#FDF53F"/>
						<stop  offset="1" style="stop-color:#D93C65"/>
					</linearGradient>
					<path style="fill:url(#SVGID_00000152947346112348621210000001326347869305808056_);" d="M1535.596,2273.685h154.156
						c7.398,0,13.282-6.206,12.89-13.594l-3.429-64.467c-0.364-6.853-6.027-12.222-12.89-12.222h-146.612
						c-6.81,0-12.448,5.29-12.882,12.086l-4.115,64.467C1522.24,2267.392,1528.144,2273.685,1535.596,2273.685z"/>
					
						<linearGradient id="SVGID_00000078726012996271875740000001914551605550268092_" gradientUnits="userSpaceOnUse" x1="886.2435" y1="4510.7534" x2="577.0944" y2="4150.0796" gradientTransform="matrix(0.7463 -0.6656 0.6656 0.7463 -1902.5829 -609.4015)">
						<stop  offset="0" style="stop-color:#FDF53F"/>
						<stop  offset="1" style="stop-color:#D93C65"/>
					</linearGradient>
					<path style="fill:url(#SVGID_00000078726012996271875740000001914551605550268092_);" d="M1580.068,2033.168l66.596-3.7
						c16.448-0.914,30.431,11.874,30.987,28.338c1.754,51.922,3.509,103.844,5.263,155.767c0.366,10.834-5.273,20.997-14.652,26.435
						c-53.283,30.896-100.634,32.561-117.314,12.376c-2.869-3.471-11.377-15.511-4.94-43.774c0.423-1.858,0.708-3.745,0.782-5.649
						c1.852-47.205,3.703-94.409,5.554-141.614C1552.938,2046.211,1564.944,2034.009,1580.068,2033.168z"/>
					
						<linearGradient id="SVGID_00000017488324691179858880000000896740717181023136_" gradientUnits="userSpaceOnUse" x1="1542.6885" y1="2208.126" x2="1541.9484" y2="2349.4834">
						<stop  offset="0" style="stop-color:#FDF53F"/>
						<stop  offset="1" style="stop-color:#D93C65"/>
					</linearGradient>
					<path style="fill:url(#SVGID_00000017488324691179858880000000896740717181023136_);" d="M1545.894,2263.601h-6.63
						c-0.556,0-1.007-0.451-1.007-1.007v-67.139c0-0.556,0.451-1.007,1.007-1.007h6.63c0.556,0,1.007,0.451,1.007,1.007v67.139
						C1546.901,2263.15,1546.45,2263.601,1545.894,2263.601z"/>
					
						<linearGradient id="SVGID_00000065774160711163848630000018396163552778256041_" gradientUnits="userSpaceOnUse" x1="1562.8582" y1="2208.126" x2="1562.1179" y2="2349.4834">
						<stop  offset="0" style="stop-color:#FDF53F"/>
						<stop  offset="1" style="stop-color:#D93C65"/>
					</linearGradient>
					<path style="fill:url(#SVGID_00000065774160711163848630000018396163552778256041_);" d="M1566.064,2263.601h-6.63
						c-0.556,0-1.007-0.451-1.007-1.007v-67.139c0-0.556,0.451-1.007,1.007-1.007h6.63c0.556,0,1.007,0.451,1.007,1.007v67.139
						C1567.071,2263.15,1566.62,2263.601,1566.064,2263.601z"/>
					
						<linearGradient id="SVGID_00000020390335773593862470000011537529269686628252_" gradientUnits="userSpaceOnUse" x1="1583.0277" y1="2208.126" x2="1582.2875" y2="2349.4834">
						<stop  offset="0" style="stop-color:#FDF53F"/>
						<stop  offset="1" style="stop-color:#D93C65"/>
					</linearGradient>
					<path style="fill:url(#SVGID_00000020390335773593862470000011537529269686628252_);" d="M1586.233,2263.601h-6.63
						c-0.556,0-1.007-0.451-1.007-1.007v-67.139c0-0.556,0.451-1.007,1.007-1.007h6.63c0.556,0,1.007,0.451,1.007,1.007v67.139
						C1587.24,2263.15,1586.79,2263.601,1586.233,2263.601z"/>
					
						<linearGradient id="SVGID_00000158724256995678388190000014849750839298363833_" gradientUnits="userSpaceOnUse" x1="1603.1973" y1="2208.126" x2="1602.457" y2="2349.4834">
						<stop  offset="0" style="stop-color:#FDF53F"/>
						<stop  offset="1" style="stop-color:#D93C65"/>
					</linearGradient>
					<path style="fill:url(#SVGID_00000158724256995678388190000014849750839298363833_);" d="M1606.403,2263.601h-6.63
						c-0.556,0-1.007-0.451-1.007-1.007v-67.139c0-0.556,0.451-1.007,1.007-1.007h6.63c0.556,0,1.007,0.451,1.007,1.007v67.139
						C1607.41,2263.15,1606.959,2263.601,1606.403,2263.601z"/>
					
						<linearGradient id="SVGID_00000113328476260663519000000014840806208190866100_" gradientUnits="userSpaceOnUse" x1="1623.3668" y1="2208.126" x2="1622.6267" y2="2349.4834">
						<stop  offset="0" style="stop-color:#FDF53F"/>
						<stop  offset="1" style="stop-color:#D93C65"/>
					</linearGradient>
					<path style="fill:url(#SVGID_00000113328476260663519000000014840806208190866100_);" d="M1626.573,2263.601h-6.63
						c-0.556,0-1.007-0.451-1.007-1.007v-67.139c0-0.556,0.451-1.007,1.007-1.007h6.63c0.556,0,1.007,0.451,1.007,1.007v67.139
						C1627.579,2263.15,1627.129,2263.601,1626.573,2263.601z"/>
					
						<linearGradient id="SVGID_00000171692090199037863560000013873377284535058084_" gradientUnits="userSpaceOnUse" x1="1643.5364" y1="2208.126" x2="1642.7963" y2="2349.4834">
						<stop  offset="0" style="stop-color:#FDF53F"/>
						<stop  offset="1" style="stop-color:#D93C65"/>
					</linearGradient>
					<path style="fill:url(#SVGID_00000171692090199037863560000013873377284535058084_);" d="M1646.742,2263.601h-6.63
						c-0.556,0-1.007-0.451-1.007-1.007v-67.139c0-0.556,0.451-1.007,1.007-1.007h6.63c0.556,0,1.007,0.451,1.007,1.007v67.139
						C1647.749,2263.15,1647.298,2263.601,1646.742,2263.601z"/>
					
						<linearGradient id="SVGID_00000132799847934990156490000006495036487474219445_" gradientUnits="userSpaceOnUse" x1="1663.7061" y1="2208.126" x2="1662.9659" y2="2349.4834">
						<stop  offset="0" style="stop-color:#FDF53F"/>
						<stop  offset="1" style="stop-color:#D93C65"/>
					</linearGradient>
					<path style="fill:url(#SVGID_00000132799847934990156490000006495036487474219445_);" d="M1666.912,2263.601h-6.63
						c-0.556,0-1.007-0.451-1.007-1.007v-67.139c0-0.556,0.451-1.007,1.007-1.007h6.63c0.556,0,1.007,0.451,1.007,1.007v67.139
						C1667.919,2263.15,1667.468,2263.601,1666.912,2263.601z"/>
					
						<linearGradient id="SVGID_00000125595404431406413680000001464831655986552448_" gradientUnits="userSpaceOnUse" x1="1683.8756" y1="2208.126" x2="1683.1354" y2="2349.4834">
						<stop  offset="0" style="stop-color:#FDF53F"/>
						<stop  offset="1" style="stop-color:#D93C65"/>
					</linearGradient>
					<path style="fill:url(#SVGID_00000125595404431406413680000001464831655986552448_);" d="M1687.081,2263.601h-6.63
						c-0.556,0-1.007-0.451-1.007-1.007v-67.139c0-0.556,0.451-1.007,1.007-1.007h6.63c0.556,0,1.007,0.451,1.007,1.007v67.139
						C1688.088,2263.15,1687.637,2263.601,1687.081,2263.601z"/>
					
						<linearGradient id="SVGID_00000127026443925155921410000010564623779446630279_" gradientUnits="userSpaceOnUse" x1="1405.7662" y1="3010.1099" x2="2182.8984" y2="2157.3274">
						<stop  offset="0" style="stop-color:#A737D5"/>
						<stop  offset="1" style="stop-color:#EF497A"/>
					</linearGradient>
					<path style="fill:url(#SVGID_00000127026443925155921410000010564623779446630279_);" d="M1467.819,2600.309
						c-21.121,55.105-51.031,156.344-45.016,276.605c1.682,33.622,29.555,59.967,63.219,59.967h275.799
						c30.261,0,56.29-21.417,62.118-51.112l22.996-117.172c4.604-23.457-4.395-47.497-23.265-62.17
						c-53.931-41.936-171.043-124.151-284.823-145.621C1508.71,2555.118,1478.796,2571.671,1467.819,2600.309z"/>
				</g>
			</g>
			<g>
				<path style="fill:#FFFFFF;" d="M1653.853,2582.699l41.769,59.382c3.817,5.426,10.059,8.627,16.693,8.559l72.597-0.744
					c16.705-0.171,26.356,18.888,16.33,32.252l-43.568,58.075c-3.981,5.307-5.097,12.232-2.982,18.521l23.141,68.814
					c5.325,15.835-9.819,30.903-25.627,25.497l-68.696-23.49c-6.277-2.147-13.209-1.067-18.535,2.888l-58.295,43.273
					c-13.414,9.958-32.425,0.211-32.169-16.493l1.112-72.593c0.102-6.633-3.068-12.892-8.474-16.736l-59.17-42.069
					c-13.615-9.681-10.22-30.772,5.746-35.691l69.384-21.375c6.34-1.953,11.313-6.901,13.298-13.231l21.726-69.274
					C1623.133,2572.323,1644.241,2569.034,1653.853,2582.699z"/>
				
					<linearGradient id="SVGID_00000045595837833832261250000015091762417474960318_" gradientUnits="userSpaceOnUse" x1="1570.6362" y1="3699.2026" x2="1308.9004" y2="4095.1616" gradientTransform="matrix(0.9881 -0.1539 0.1539 0.9881 -406.1855 -806.3801)">
					<stop  offset="0" style="stop-color:#FDF53F"/>
					<stop  offset="1" style="stop-color:#D93C65"/>
				</linearGradient>
				<path style="fill:url(#SVGID_00000045595837833832261250000015091762417474960318_);" d="M1759.967,2841.911
					c-1.238,0.193-2.524,0.066-3.821-0.378l-68.695-23.49c-4.941-1.689-10.28-2.158-15.438-1.354
					c-5.159,0.804-10.102,2.873-14.295,5.985l-58.295,43.274c-1.101,0.817-2.287,1.329-3.525,1.522
					c-2.282,0.355-4.733-0.38-6.556-1.965c-1.237-1.077-2.702-3.006-2.655-6.088l1.113-72.592
					c0.162-10.643-4.919-20.678-13.593-26.846l-59.17-42.07c-3.649-2.594-3.491-6.3-3.255-7.772c0.238-1.473,1.251-5.041,5.53-6.359
					l69.383-21.375c10.171-3.133,18.146-11.067,21.332-21.224l21.726-69.273c1.34-4.272,4.912-5.268,6.386-5.498
					c1.473-0.229,5.18-0.368,7.756,3.294l41.769,59.382c6.125,8.706,16.135,13.839,26.777,13.729l72.597-0.743
					c4.478-0.046,6.528,3.045,7.202,4.375c0.673,1.331,1.951,4.813-0.736,8.394l-43.568,58.075
					c-6.388,8.514-8.175,19.62-4.783,29.708l23.141,68.814c0.982,2.921,0.173,5.205-0.678,6.606
					C1764.359,2840.11,1762.248,2841.556,1759.967,2841.911z"/>
				<path style="fill:#FFFFFF;" d="M1595.46,2768.029c-0.761,0.119-1.544-0.256-1.911-0.98c-3.113-6.148-7.728-11.51-13.346-15.504
					l-22.511-16.006c-0.821-0.584-1.014-1.724-0.43-2.547c0.584-0.822,1.724-1.015,2.547-0.431l22.511,16.006
					c6.099,4.336,11.109,10.156,14.488,16.831c0.456,0.899,0.096,1.999-0.804,2.455
					C1595.828,2767.943,1595.645,2768,1595.46,2768.029z"/>
				<path style="fill:#FFFFFF;" d="M1642.94,2820.495c-0.649,0.101-1.331-0.152-1.749-0.716c-0.601-0.81-0.432-1.955,0.378-2.555
					l7.804-5.793c6.008-4.459,13.092-7.425,20.485-8.577c7.393-1.151,15.043-0.48,22.125,1.94c0.954,0.326,1.463,1.365,1.137,2.319
					c-0.326,0.955-1.365,1.464-2.319,1.138c-6.523-2.23-13.57-2.848-20.38-1.787c-6.81,1.061-13.335,3.793-18.869,7.901
					l-7.804,5.792C1643.5,2820.339,1643.223,2820.451,1642.94,2820.495z"/>
				<path style="fill:#FFFFFF;" d="M1733.537,2821.075c-1.416,0.22-2.874,0.233-4.337,0.025c-0.998-0.143-1.692-1.068-1.55-2.067
					c0.143-0.999,1.066-1.692,2.067-1.55c3.83,0.547,7.628-0.943,10.161-3.986c2.539-3.05,3.266-6.968,1.993-10.751l-11.992-35.66
					c-4.861-14.458-2.299-30.373,6.855-42.574l22.577-30.096c2.626-3.5,3.014-7.919,1.037-11.823
					c-1.976-3.905-5.769-6.208-10.144-6.163l-37.619,0.385c-15.253,0.157-29.598-7.198-38.375-19.674l-21.645-30.772
					c-2.518-3.579-6.601-5.313-10.924-4.64c-4.324,0.673-7.686,3.568-8.996,7.743l-11.259,35.898
					c-4.565,14.555-15.993,25.926-30.57,30.415l-35.954,11.077c-2.144,0.661-4.002,1.892-5.374,3.561
					c-0.641,0.78-1.791,0.892-2.57,0.251c-0.78-0.64-0.892-1.791-0.252-2.57c1.827-2.224,4.29-3.862,7.121-4.733l35.954-11.076
					c13.427-4.136,23.955-14.61,28.16-28.018l11.259-35.897c1.709-5.449,6.276-9.38,11.919-10.26s11.189,1.477,14.475,6.148
					l21.645,30.771c8.085,11.493,21.299,18.268,35.349,18.124l37.619-0.385c5.71-0.058,10.86,3.07,13.44,8.165
					c2.58,5.095,2.053,11.098-1.374,15.666l-22.577,30.095c-8.432,11.239-10.792,25.9-6.315,39.217l11.992,35.661
					c1.66,4.937,0.67,10.265-2.648,14.252C1740.297,2818.703,1737.05,2820.527,1733.537,2821.075z"/>
			</g>
		</g>
		<g>
			
				<linearGradient id="SVGID_00000166651250667161108730000016301121719554726820_" gradientUnits="userSpaceOnUse" x1="12662.2305" y1="2389.4314" x2="12394.6553" y2="2542.1594" gradientTransform="matrix(-1 0 0 1 14907.9824 0)">
				<stop  offset="0" style="stop-color:#F9B776"/>
				<stop  offset="1" style="stop-color:#F47960"/>
			</linearGradient>
			<path style="fill:url(#SVGID_00000166651250667161108730000016301121719554726820_);" d="M2286.432,2638.415
				c0.316-0.121,170.036-297.343,192.97-325.314c3.859-4.704,9.83-7.1,15.872-6.38l47.372,5.645l55.651,120.395l-92.714-53.996
				c9.174,63.449-109.93,157.742-150.778,192.148c-4.146,3.492-4.486,9.746-0.742,13.665l16.308,17.071
				c-26.773,27.138-57.667,44.563-92.535,52.623L2286.432,2638.415z"/>
			
				<linearGradient id="SVGID_00000181783911255640724880000009412348509810234279_" gradientUnits="userSpaceOnUse" x1="-3158.2556" y1="-1128.1823" x2="-3178.7964" y2="-813.2234" gradientTransform="matrix(0.8974 -0.4412 0.4412 0.8974 5612.7036 2161.1482)">
				<stop  offset="0" style="stop-color:#2B3582"/>
				<stop  offset="1" style="stop-color:#150E42"/>
			</linearGradient>
			<path style="fill:url(#SVGID_00000181783911255640724880000009412348509810234279_);" d="M2360.939,2592.438
				c0,0,10.408,3.362,13.932,12.631c1.686,4.436-0.131,9.458-3.989,12.221c-17.138,12.278-73.669,51.92-99.755,59.683
				c-2.138,0.636-4.173-1.299-3.692-3.477c1.339-6.06,5.669-18.163,19.62-35.878l-1.252,2.531c-1.583,3.204,1.905,6.54,5.017,4.783
				C2308.269,2635.083,2343.808,2613.524,2360.939,2592.438z"/>
			
				<linearGradient id="SVGID_00000044856582120581151120000005026309284803281563_" gradientUnits="userSpaceOnUse" x1="12636.3467" y1="2427.5203" x2="13551.8604" y2="1854.3949" gradientTransform="matrix(-1 0 0 1 14907.9824 0)">
				<stop  offset="0" style="stop-color:#F9B776"/>
				<stop  offset="1" style="stop-color:#F47960"/>
			</linearGradient>
			<path style="fill:url(#SVGID_00000044856582120581151120000005026309284803281563_);" d="M2352.54,2711.362
				c0.284-0.183,25.748-61.532,26.033-61.715c23.347-142.148,80.31-263.886,97.108-295.92c2.827-5.388,8.189-8.943,14.253-9.46
				l47.533-4.058l78.866,106.642l-101.723-34.115c21.825,60.28-75.732,176.726-108.771,218.686
				c-3.353,4.259-2.421,10.452,2.039,13.533l19.425,13.418c-20.728,31.994-47.455,55.311-79.971,70.26L2352.54,2711.362z"/>
			
				<linearGradient id="SVGID_00000076579878724736567780000003222962962630532243_" gradientUnits="userSpaceOnUse" x1="-2256.1523" y1="-2479.3645" x2="-2276.6917" y2="-2164.4292" gradientTransform="matrix(0.7895 -0.6137 0.6137 0.7895 5630.2925 3191.1018)">
				<stop  offset="0" style="stop-color:#2B3582"/>
				<stop  offset="1" style="stop-color:#150E42"/>
			</linearGradient>
			<path style="fill:url(#SVGID_00000076579878724736567780000003222962962630532243_);" d="M2416.199,2651.258
				c0,0,10.873,1.185,16.2,9.551c2.549,4.002,1.786,9.29-1.432,12.776c-14.298,15.492-61.637,65.753-85.613,78.635
				c-1.966,1.057-4.349-0.427-4.319-2.658c0.084-6.205,1.877-18.934,11.954-39.106l-0.714,2.733
				c-0.903,3.458,3.189,6.019,5.881,3.668C2373.25,2703.68,2403.691,2675.375,2416.199,2651.258z"/>
			<g>
				
					<linearGradient id="SVGID_00000160172146307217683320000013267264683483749250_" gradientUnits="userSpaceOnUse" x1="-12463.8857" y1="1717.4935" x2="-10805.2676" y2="1783.0667" gradientTransform="matrix(-1 0 0 1 7076.2827 0)">
					<stop  offset="0" style="stop-color:#53D8FF"/>
					<stop  offset="1" style="stop-color:#3840F7"/>
				</linearGradient>
				<path style="fill:url(#SVGID_00000160172146307217683320000013267264683483749250_);" d="M2759.968,2317.75
					c0,0,43.001,63.958,46.53,93.133c3.528,29.175-11.891,39.264-56.898,42.985c-133.934,11.072-199.958-29.069-199.958-29.069
					c-9.162-58.417-15.681-73.278-92.201-105.041c0,0,96.783,7.684,116.261,0.126
					C2593.181,2312.324,2759.968,2317.75,2759.968,2317.75z"/>
			</g>
			<g>
				
					<linearGradient id="SVGID_00000129196612896757923190000010100591245424937131_" gradientUnits="userSpaceOnUse" x1="-6111.686" y1="1654.8713" x2="-6045.8887" y2="1819.923" gradientTransform="matrix(0.9446 -0.3283 0.3283 0.9446 7772.4463 -1699.1722)">
					<stop  offset="0" style="stop-color:#2B3582"/>
					<stop  offset="1" style="stop-color:#150E42"/>
				</linearGradient>
				<path style="fill:url(#SVGID_00000129196612896757923190000010100591245424937131_);" d="M2588.496,1959.416
					c0,0,29.949-35.435,61.79,8.041c5.767,7.874,27.916,1.378,36.036,17.86c4.192,8.51,13.248,13.344,22.577,11.624
					c23.234-4.286,61.211-4.646,79.962,31.763c14.313,27.792,3.262,44.056-11.044,53.329c-10.508,6.811-14.259,20.638-7.904,31.427
					c6.094,10.349,7.24,24.364-8.497,41.23c-35.265,37.797-105.076-23.986-105.076-23.986l-55.428-130.979L2588.496,1959.416z"/>
				
					<linearGradient id="SVGID_00000010268669992962159150000006587117175255394182_" gradientUnits="userSpaceOnUse" x1="2794.8408" y1="2003.1962" x2="2395.958" y2="2718.4333">
					<stop  offset="0" style="stop-color:#53D8FF"/>
					<stop  offset="1" style="stop-color:#3840F7"/>
				</linearGradient>
				<path style="fill:url(#SVGID_00000010268669992962159150000006587117175255394182_);" d="M2643.677,2309.283
					c0,0-50.074-47.681-74.723-79.263c-13.324-17.071-17.508-39.545-11.347-60.306c11.254-37.913,31.253-77.182,33.077-83.293
					c2.796-9.368,58.942-8.978,58.942-8.978s110.486,71.706,153.896,193.171l-48.753,15.178c0,0-28.848-48.398-57.351-79.168
					c0,0,49.321,65.155,51.058,91.828L2643.677,2309.283z"/>
				
					<linearGradient id="SVGID_00000122718942632579414380000016203184228734688132_" gradientUnits="userSpaceOnUse" x1="-3797.1191" y1="2301.397" x2="-3530.5735" y2="2301.397" gradientTransform="matrix(1 0 0 1 6511.52 0)">
					<stop  offset="0" style="stop-color:#F9B776"/>
					<stop  offset="1" style="stop-color:#F47960"/>
				</linearGradient>
				<path style="fill:url(#SVGID_00000122718942632579414380000016203184228734688132_);" d="M2548.269,2328.099l37.626-40.937
					l43.454,11.701c0,0,50.66,7.849,79.655,0c28.995-7.848,28.995-7.848,28.995-7.848l65.523-20.399l10.29,29.083
					c2.614,7.384-0.013,15.581-6.397,20.118c-5.669,4.029-12.313,8.455-16.549,10.308c-8.629,3.775-198.771,1.194-198.771,1.194
					L2548.269,2328.099z"/>
				
					<linearGradient id="SVGID_00000098211510915161322910000004760227507292302477_" gradientUnits="userSpaceOnUse" x1="-5705.6353" y1="1664.225" x2="-5692.6055" y2="1568.9023" gradientTransform="matrix(0.9974 -0.0717 0.0717 0.9974 8177.3901 105.0094)">
					<stop  offset="0" style="stop-color:#F9B776"/>
					<stop  offset="1" style="stop-color:#F47960"/>
				</linearGradient>
				<path style="fill:url(#SVGID_00000098211510915161322910000004760227507292302477_);" d="M2611.038,2009.936l37.737,70.172
					c-2.491,15.318-41.072,15.75-47.031,6.603c-0.607-0.93-0.954-2.007-1.184-3.095l-22.574-46.887
					c-0.969-4.573,11.565-19.978,15.689-22.173l14.999-7.984C2614.45,2003.498,2590.35,2003.256,2611.038,2009.936z"/>
				<g>
					
						<linearGradient id="SVGID_00000120527374172190595690000005392544727766377401_" gradientUnits="userSpaceOnUse" x1="-7089.7642" y1="866.6605" x2="-6967.0806" y2="648.3246" gradientTransform="matrix(0.5458 -0.8379 0.8379 0.5458 5758.4058 -4320.769)">
						<stop  offset="0" style="stop-color:#F9B776"/>
						<stop  offset="1" style="stop-color:#F47960"/>
					</linearGradient>
					<path style="fill:url(#SVGID_00000120527374172190595690000005392544727766377401_);" d="M2534.667,1993.467
						c0,0-4.26,23.708,14.374,53.851c18.634,30.143,37.19,28.782,46.617,18.032c9.427-10.75,20.719-28.654,15.581-58.718
						C2606.101,1976.568,2541.103,1963.234,2534.667,1993.467z"/>
					
						<linearGradient id="SVGID_00000059991293584833001450000002363681443993918375_" gradientUnits="userSpaceOnUse" x1="-7063.3828" y1="676.5243" x2="-7002.0415" y2="830.3974" gradientTransform="matrix(0.5458 -0.8379 0.8379 0.5458 5758.4058 -4320.769)">
						<stop  offset="0" style="stop-color:#2B3582"/>
						<stop  offset="1" style="stop-color:#150E42"/>
					</linearGradient>
					<path style="fill:url(#SVGID_00000059991293584833001450000002363681443993918375_);" d="M2588.681,2009.899
						c0,0-30.173-39.632-53.338-5.083l0.391,11.935c0,0-30.124-1.408-26.857-29.173c3.267-27.765,27.86-46.732,61.955-37.246
						c34.094,9.486,54.016,20.289,57.866,43.96c3.851,23.671-15.478,19.804-15.478,19.804s-7.383-16.333-16.299-17.449
						c-8.915-1.115-5.693,11.804-5.693,11.804L2588.681,2009.899z"/>
					
						<linearGradient id="SVGID_00000036966285734851254060000012980616678884507271_" gradientUnits="userSpaceOnUse" x1="-7063.6484" y1="881.3315" x2="-6940.9668" y2="662.9996" gradientTransform="matrix(0.5458 -0.8379 0.8379 0.5458 5758.4058 -4320.769)">
						<stop  offset="0" style="stop-color:#F9B776"/>
						<stop  offset="1" style="stop-color:#F47960"/>
					</linearGradient>
					<path style="fill:url(#SVGID_00000036966285734851254060000012980616678884507271_);" d="M2595.605,2008.842
						c0,0-15.63-20.282-1.403-24.491c14.227-4.21,13.696,19.873,12.768,28.833L2595.605,2008.842z"/>
				</g>
			</g>
			<g>
				
					<linearGradient id="SVGID_00000148629149656511603740000008359180982763715505_" gradientUnits="userSpaceOnUse" x1="-3879.4446" y1="2164.304" x2="-4018.8826" y2="2202.5203" gradientTransform="matrix(0.9988 -0.0494 0.0494 0.9988 6470.0508 -55.0328)">
					<stop  offset="0" style="stop-color:#2B3582"/>
					<stop  offset="1" style="stop-color:#150E42"/>
				</linearGradient>
				<path style="fill:url(#SVGID_00000148629149656511603740000008359180982763715505_);" d="M2672.816,2344.302
					c-0.132,0.006-0.264,0.01-0.398,0.009l-173.063-0.189c-4.279-0.004-7.742-3.476-7.738-7.754c0.004-4.28,3.489-7.815,7.755-7.739
					l173.064,0.189c4.278,0.003,7.742,3.476,7.738,7.754C2680.169,2340.717,2676.909,2344.099,2672.816,2344.302z"/>
				
					<linearGradient id="SVGID_00000182500498102588337490000014868177056889247919_" gradientUnits="userSpaceOnUse" x1="2344.6555" y1="2071.8911" x2="2619.7473" y2="2591.1267">
					<stop  offset="0" style="stop-color:#2B3582"/>
					<stop  offset="1" style="stop-color:#150E42"/>
				</linearGradient>
				<path style="fill:url(#SVGID_00000182500498102588337490000014868177056889247919_);" d="M2343.779,2187.17h144.128
					c10.632,0,20.309,6.136,24.845,15.753l66.631,141.286h-179.113c-6.852,0-13.008-4.186-15.527-10.559l-51.668-130.739
					C2330.089,2195.357,2335.656,2187.17,2343.779,2187.17z"/>
				
					<linearGradient id="SVGID_00000005230288081631703380000010202119911764998815_" gradientUnits="userSpaceOnUse" x1="2599.79" y1="1852.6445" x2="2393.4717" y2="2365.0017">
					<stop  offset="0" style="stop-color:#53D8FF"/>
					<stop  offset="1" style="stop-color:#3840F7"/>
				</linearGradient>
				<path style="fill:url(#SVGID_00000005230288081631703380000010202119911764998815_);" d="M2445.318,2259.612
					c3.124,9.704,0.817,19.128-5.153,21.049c-5.97,1.921-13.341-4.387-16.464-14.091c-3.124-9.703-0.816-19.127,5.154-21.048
					C2434.824,2243.599,2442.195,2249.908,2445.318,2259.612z"/>
			</g>
		</g>
		<g>
			<g>
				<g>
					
						<linearGradient id="SVGID_00000158746998555249968540000017286424371643599285_" gradientUnits="userSpaceOnUse" x1="-2050.4121" y1="2497.4749" x2="760.3964" y2="2274.0991" gradientTransform="matrix(-1 0 0 1 -3205.906 0)">
						<stop  offset="0" style="stop-color:#C32B78"/>
						<stop  offset="1" style="stop-color:#593092"/>
					</linearGradient>
					<path style="fill:url(#SVGID_00000158746998555249968540000017286424371643599285_);" d="M1186.247,3250.917
						c0.77,0,1.55-0.044,2.332-0.133c11.093-1.273,19.052-11.298,17.776-22.393l-126.903-1104.339
						c-1.273-11.086-11.318-19.032-22.391-17.773c-11.093,1.273-19.052,11.298-17.776,22.394l126.903,1104.339
						C1167.373,3243.316,1176.114,3250.917,1186.247,3250.917z"/>
					
						<linearGradient id="SVGID_00000018204186487765931150000017991019225055521714_" gradientUnits="userSpaceOnUse" x1="-2047.2081" y1="2537.7798" x2="763.5848" y2="2314.4053" gradientTransform="matrix(-1 0 0 1 -3205.906 0)">
						<stop  offset="0" style="stop-color:#C32B78"/>
						<stop  offset="1" style="stop-color:#593092"/>
					</linearGradient>
					<path style="fill:url(#SVGID_00000018204186487765931150000017991019225055521714_);" d="M488.651,3250.922
						c9.252,0,17.599-6.392,19.708-15.799l247.609-1104.339c2.441-10.893-4.41-21.708-15.306-24.151
						c-10.871-2.424-21.705,4.407-24.151,15.305L468.905,3226.278c-2.443,10.893,4.408,21.707,15.303,24.151
						C485.697,3250.759,487.185,3250.922,488.651,3250.922z"/>
					
						<linearGradient id="SVGID_00000017483936543644413610000010357540487149602988_" gradientUnits="userSpaceOnUse" x1="-2026.9707" y1="2792.4409" x2="783.8298" y2="2569.0659" gradientTransform="matrix(-1 0 0 1 -3205.906 0)">
						<stop  offset="0" style="stop-color:#C32B78"/>
						<stop  offset="1" style="stop-color:#593092"/>
					</linearGradient>
					<path style="fill:url(#SVGID_00000017483936543644413610000010357540487149602988_);" d="M906.805,3250.917
						c11.165,0,20.217-9.052,20.217-20.217v-545.01c0-11.165-9.052-20.217-20.217-20.217c-11.165,0-20.217,9.052-20.217,20.217
						v545.01C886.588,3241.865,895.64,3250.917,906.805,3250.917z"/>
					
						<linearGradient id="SVGID_00000134942553872324363450000012814872545243339655_" gradientUnits="userSpaceOnUse" x1="-3574.6799" y1="1750.9785" x2="-4883.7163" y2="3550.2747" gradientTransform="matrix(-1 0 0 1 -3205.906 0)">
						<stop  offset="0" style="stop-color:#A737D5"/>
						<stop  offset="1" style="stop-color:#EF497A"/>
					</linearGradient>
					<path style="fill:url(#SVGID_00000134942553872324363450000012814872545243339655_);" d="M1311.399,2002.811l-71.079,895.279
						c-1.504,18.936-17.544,33.395-36.534,32.932l-742.372-18.107c-21.642-0.528-37.86-20.008-34.457-41.387l142.119-892.715
						c2.814-17.678,18.261-30.554,36.157-30.14l671.333,15.543C1297.105,1964.691,1313.025,1982.33,1311.399,2002.811z"/>
					
						<linearGradient id="SVGID_00000021831482245169073510000012704143838763849396_" gradientUnits="userSpaceOnUse" x1="1378.7428" y1="1797.5179" x2="264.6221" y2="3303.6438">
						<stop  offset="0" style="stop-color:#53D8FF"/>
						<stop  offset="1" style="stop-color:#3840F7"/>
					</linearGradient>
					<path style="fill:url(#SVGID_00000021831482245169073510000012704143838763849396_);" d="M1249.258,1988.859l-622.542-14.412
						c-17.896-0.414-33.343,12.462-36.157,30.14l-134.103,842.378c-3.404,21.379,12.814,40.859,34.457,41.387l689.573,16.819
						c18.99,0.463,35.031-13.996,36.534-32.932l67.073-844.785C1285.718,2006.974,1269.798,1989.335,1249.258,1988.859z"/>
					<path style="opacity:0.4;fill:#FFFFFF;" d="M1219.339,2011.899l-570.26-13.564c-16.393-0.39-30.542,11.729-33.12,28.366
						l-122.841,792.794c-3.118,20.121,11.738,38.454,31.563,38.951l631.661,15.829c17.395,0.436,32.089-13.172,33.466-30.993
						l61.44-795.059C1252.737,2028.947,1238.154,2012.346,1219.339,2011.899z"/>
				</g>
			</g>
			<g>
				<g>
					<g>
						<path style="fill:#FFFFFF;" d="M1061.218,2556.905c-0.126,0-0.252-0.003-0.378-0.01l-1.771-0.097l-231.309-12.354
							c-8.284-0.443-15.899-4.083-21.444-10.252c-5.548-6.176-8.355-14.137-7.907-22.422l18.634-348.733
							c0.203-3.791,3.444-6.74,7.233-6.501l257.238,13.741c1.828,0.101,3.541,0.927,4.758,2.293c1.219,1.37,1.84,3.167,1.728,4.993
							l-9.231,150.565l-13.728-0.84l8.806-143.65l-243.437-13.002l-18.268,341.873c-0.25,4.617,1.315,9.05,4.402,12.489
							c3.089,3.435,7.332,5.467,11.946,5.712l226.227,12.083l4.156-77.695l13.734,0.732l-4.523,84.566
							c-0.097,1.823-0.915,3.533-2.275,4.751C1064.546,2556.28,1062.909,2556.905,1061.218,2556.905z"/>
						<path style="fill:#FFFFFF;" d="M1131.645,2560.635c-0.552,0-1.106-0.013-1.664-0.044l-70.912-3.794
							c-3.756-0.208-6.651-3.395-6.493-7.153l3.994-96.128l13.741,0.571l-3.712,89.341l64.114,3.428
							c9.522,0.467,17.692-6.833,18.209-16.357l18.266-341.866l-81.375-4.355l-8.781,143.939l-13.728-0.839l9.196-150.753
							c0.23-3.774,3.482-6.632,7.242-6.448l95.05,5.087c3.793,0.201,6.703,3.442,6.5,7.233l-18.634,348.74
							C1161.761,2547.778,1148.014,2560.635,1131.645,2560.635z"/>
						<path style="fill:#FFFFFF;" d="M1079.37,2183.926c-0.121,0-0.243-0.003-0.368-0.01l-255.46-13.65
							c-2.512-0.134-4.752-1.629-5.836-3.902c-1.086-2.27-0.845-4.95,0.628-6.991l51.472-71.281l11.152,8.052l-44.093,61.059
							l239.125,12.778l41.91-58.034l-80.081-4.416l0.756-13.734l92.645,5.107c2.512,0.138,4.747,1.635,5.83,3.906
							c1.083,2.27,0.84,4.95-0.631,6.988l-51.472,71.278C1083.648,2182.872,1081.571,2183.926,1079.37,2183.926z"/>
						<path style="fill:#FFFFFF;" d="M1174.426,2189.007c-0.123,0-0.245-0.003-0.369-0.01l-95.055-5.081
							c-2.512-0.134-4.752-1.629-5.836-3.902c-1.086-2.27-0.844-4.95,0.628-6.991l51.472-71.278
							c1.368-1.894,3.548-2.975,5.944-2.841c2.334,0.125,4.446,1.427,5.604,3.459l43.582,76.359
							c1.248,2.186,1.202,4.876-0.119,7.018C1179.022,2187.778,1176.802,2189.007,1174.426,2189.007z M1092.327,2170.854
							l69.876,3.738l-32.039-56.133L1092.327,2170.854z"/>
						<path style="fill:#FFFFFF;" d="M1137.709,2106.137l-13.734-0.732l0.66-12.361c0.242-4.533-2.55-8.378-6.224-8.576
							l-93.441-4.893l0.719-13.734l93.449,4.893c11.255,0.601,19.878,10.937,19.232,23.043L1137.709,2106.137z"/>
						<path style="fill:#FFFFFF;" d="M900.747,2100.452l-25.756-1.467c-3.783-0.219-6.679-3.452-6.476-7.233l0.662-12.357
							c0.306-5.726,2.626-11.035,6.531-14.95c4.107-4.117,9.426-6.229,15.039-5.917l27.299,2.001l-1.007,13.718l-27.163-1.995
							c-2.06-0.084-3.674,1.148-4.431,1.907c-1.509,1.514-2.409,3.634-2.534,5.967l-0.296,5.514l18.914,1.078L900.747,2100.452z"/>
						<g>
							<path style="fill:#FFFFFF;" d="M984.863,2147.082c-7.462,0-13.958-0.262-18.164-0.487
								c-18.498-0.987-35.876-3.398-48.935-6.79c-11.649-3.026-24.952-7.781-24.415-17.798c0.532-9.984,14.599-12.687,29.72-14.124
								c13.988-1.326,33.018-1.501,52.213-0.473c67.98,3.633,67.248,17.381,66.971,22.556c0,0,0,0,0,0.003
								C1041.476,2144.483,1008.391,2147.082,984.863,2147.082z M911.583,2123.414c8.671,3.459,27.721,7.942,55.851,9.446
								c29.759,1.575,49.786-1.222,58.009-3.879c-6.202-2.576-21.01-6.239-50.896-7.838
								C944.377,2119.536,921.861,2121.148,911.583,2123.414z"/>
							
								<rect x="876.905" y="2091.347" transform="matrix(0.0532 -0.9986 0.9986 0.0532 -1241.7292 2886.7666)" style="fill:#FFFFFF;" width="49.202" height="13.754"/>
							
								<rect x="1012.209" y="2098.565" transform="matrix(0.0532 -0.9986 0.9986 0.0532 -1120.8335 3028.7144)" style="fill:#FFFFFF;" width="49.205" height="13.754"/>
							<path style="fill:#FFFFFF;" d="M987.49,2097.947c-7.463,0-13.959-0.262-18.165-0.487
								c-18.498-0.987-35.877-3.398-48.935-6.787c-11.649-3.026-24.952-7.781-24.415-17.798
								c0.534-10.021,14.267-13.332,26.173-15.098c13.347-1.978,30.879-2.522,49.382-1.534c17.465,0.933,74.369,5.463,73.35,24.587
								l0,0C1044.102,2095.348,1011.019,2097.947,987.49,2097.947z M913.016,2073.786c8.029,3.512,27.543,8.362,57.045,9.94
								c29.492,1.585,49.419-1.169,57.777-3.805c-8.029-3.512-27.543-8.365-57.043-9.943
								C941.289,2068.409,921.374,2071.146,913.016,2073.786z"/>
							<path style="fill:#FFFFFF;" d="M989.522,2092.208c-6.033,0-12.658-0.191-19.886-0.578
								c-15.69-0.839-30.446-2.683-41.544-5.191c-11.583-2.619-22.24-6.236-21.777-14.89c0.462-8.657,11.443-11.118,23.239-12.489
								c11.3-1.313,26.166-1.572,41.863-0.736c15.691,0.84,30.446,2.683,41.546,5.195c11.583,2.619,22.24,6.236,21.777,14.89
								C1034.25,2087.587,1019.058,2092.208,989.522,2092.208z M930.305,2072.829c8.746,2.035,22.244,4.114,40.067,5.067
								c17.816,0.95,31.461,0.322,40.375-0.769c-8.746-2.035-22.244-4.114-40.065-5.067
								C952.862,2071.106,939.219,2071.737,930.305,2072.829z"/>
							<path style="fill:#FFFFFF;" d="M987.219,2092.111c-5.68,0-11.58-0.161-17.583-0.48c-9.13-0.49-17.846-1.306-25.909-2.421
								c-3.508-0.487-6.896-1.034-10.072-1.629c-1.604-0.302-3.125-0.611-4.579-0.924l2.908-13.446
								c1.34,0.292,2.74,0.574,4.209,0.85c2.953,0.554,6.127,1.068,9.421,1.521c7.683,1.064,16.013,1.844,24.757,2.314
								c6.478,0.346,12.838,0.531,18.867,0.453c2.715-0.027,5.349-0.077,7.878-0.175c4.327-0.175,8.085-0.437,11.387-0.789
								c1.887-0.191,3.635-0.416,5.237-0.672l2.153,13.587c-1.833,0.289-3.83,0.547-5.961,0.766
								c-3.578,0.383-7.64,0.665-12.049,0.84c-2.903,0.114-5.665,0.171-8.529,0.198
								C988.646,2092.107,987.934,2092.111,987.219,2092.111z"/>
						</g>
					</g>
					<path style="fill:#FFFFFF;" d="M1099.365,2480.764c-0.164,0-0.329-0.003-0.495-0.01c-0.002,0-0.002,0-0.003,0
						c-1.969-0.084-3.869-0.652-5.643-1.682l-42.528-24.722c-2.099-1.222-4.488-1.921-6.907-2.022
						c-2.441-0.081-4.871,0.39-7.065,1.427l-44.472,21.015c-1.867,0.88-3.833,1.259-5.781,1.196
						c-3.561-0.151-7.017-1.965-9.24-4.843c-2.22-2.871-3.014-6.441-2.236-10.047l10.371-48.087
						c1.044-4.836-0.359-9.869-3.751-13.473l-33.728-35.803c-3.279-3.476-4.24-8.227-2.572-12.71
						c1.679-4.483,5.514-7.448,10.264-7.932l48.935-4.993c4.923-0.504,9.28-3.395,11.654-7.734l23.627-43.141
						c2.29-4.184,6.543-6.531,11.278-6.374c4.8,0.205,8.805,2.942,10.734,7.314l19.871,44.995c1.998,4.523,6.093,7.774,10.956,8.694
						l48.329,9.141c4.696,0.886,8.266,4.164,9.552,8.768c1.281,4.614-0.08,9.265-3.638,12.452l-36.656,32.805
						c-3.685,3.298-5.51,8.2-4.883,13.107l6.243,48.789c0.468,3.664-0.628,7.153-3.086,9.826
						C1106.144,2479.273,1102.762,2480.764,1099.365,2480.764z M1043.153,2438.56c0.406,0,0.811,0.01,1.216,0.027
						c4.636,0.195,9.214,1.531,13.239,3.868l39.949,23.228l-5.865-45.834c-1.202-9.399,2.295-18.781,9.354-25.101l34.434-30.813
						l-45.403-8.59c-9.31-1.76-17.155-7.985-20.983-16.652l-18.667-42.268l-22.197,40.528c-4.549,8.308-12.893,13.845-22.321,14.806
						l-45.97,4.691l31.685,33.637c6.498,6.897,9.184,16.542,7.186,25.803l-9.743,45.169l41.779-19.742
						C1034.683,2439.507,1038.914,2438.56,1043.153,2438.56z"/>
				</g>
				<g>
					<g>
						<path style="fill:#FFFFFF;" d="M1091.36,2842.973c-0.094,0-0.186-0.003-0.28-0.007l-125.707-6.716
							c-4.879-0.262-9.367-2.408-12.633-6.041c-3.269-3.637-4.923-8.328-4.661-13.211l10.126-189.511
							c0.153-2.844,2.593-4.963,5.427-4.876l139.797,7.465c1.37,0.077,2.654,0.698,3.566,1.723c0.913,1.028,1.379,2.374,1.295,3.744
							l-5.017,81.822l-3.345,74.777c-0.002,0.05-0.005,0.101-0.008,0.151l-3.42,45.905
							C1096.296,2840.905,1094.04,2842.973,1091.36,2842.973z M968.232,2633.189l-9.851,184.364
							c-0.116,2.129,0.606,4.174,2.03,5.759c1.425,1.588,3.383,2.522,5.512,2.636l120.663,6.448l3.039-40.79l3.346-74.787
							l4.703-76.718L968.232,2633.189z"/>
						<path style="fill:#FFFFFF;" d="M1102.181,2640.335c-0.091,0-0.183-0.003-0.275-0.007l-138.825-7.418
							c-1.884-0.101-3.565-1.222-4.379-2.925c-0.813-1.706-0.633-3.718,0.474-5.245l27.973-38.735
							c1.026-1.417,2.681-2.199,4.451-2.132l88.478,4.644c0.005,0,0.008,0,0.013,0l50.347,2.774
							c1.884,0.104,3.559,1.229,4.372,2.932c0.811,1.699,0.63,3.71-0.475,5.238l-27.973,38.735
							C1105.39,2639.543,1103.832,2640.335,1102.181,2640.335z M973.074,2623.112l126.573,6.763l20.8-28.802l-40.916-2.253
							l-85.666-4.496L973.074,2623.112z"/>
					</g>
					<path style="fill:#FFFFFF;" d="M1097.861,2841.899l-7.643-6.931l23.829-26.29l11.253-212.497l10.302,0.544l-11.35,214.331
						c-0.064,1.185-0.532,2.313-1.33,3.193L1097.861,2841.899z"/>
				</g>
				<g>
					<path style="fill:#FFFFFF;" d="M820.078,2752.911c-9.871,0-19.362-0.282-27.699-0.729c-29.232-1.561-56.64-5.359-77.173-10.688
						c-24.166-6.273-35.196-13.429-34.711-22.516c1.216-22.684,95.981-19.386,124.997-17.834
						c68.331,3.654,102.538,13.728,101.673,29.95l0,0C906.246,2748.277,860.051,2752.911,820.078,2752.911z M690.869,2719.75
						c2.342,5.997,38.651,18.741,102.061,22.129c64.011,3.422,101.579-5.584,103.935-11.404c-0.109-2.935-16.347-14.99-91.923-19.03
						C738.152,2707.873,695.654,2714.018,690.869,2719.75z"/>
					
						<rect x="648.333" y="2675.438" transform="matrix(0.0534 -0.9986 0.9986 0.0534 -2025.77 3224.248)" style="fill:#FFFFFF;" width="78.761" height="10.317"/>
					
						<rect x="864.917" y="2686.993" transform="matrix(0.0534 -0.9986 0.9986 0.0534 -1832.2852 3451.4614)" style="fill:#FFFFFF;" width="78.761" height="10.317"/>
					<path style="fill:#FFFFFF;" d="M824.283,2674.262c-9.873,0-19.362-0.282-27.699-0.729
						c-42.093-2.25-113.027-11.777-111.885-33.204c1.147-21.428,72.693-23.349,114.786-21.089
						c29.23,1.562,56.637,5.359,77.173,10.692c24.166,6.273,35.196,13.426,34.711,22.512
						C910.448,2669.628,864.253,2674.262,824.283,2674.262z M771.571,2628.787c-47.437,0-74.763,7.274-76.592,12.213
						c1.533,5.776,37.951,18.798,102.155,22.23c63.751,3.415,101.287-5.514,103.905-11.337
						c-1.983-6.075-38.344-18.943-102.105-22.351C789.194,2629.022,780.055,2628.787,771.571,2628.787z"/>
					<path style="fill:#FFFFFF;" d="M824.937,2664.967c-8.917,0-18.286-0.255-27.855-0.766c-24.799-1.323-48.069-4.228-65.526-8.177
						c-21.648-4.896-30.711-10.222-30.306-17.818c0.408-7.593,9.987-11.928,32.034-14.487c17.774-2.062,41.22-2.468,66.023-1.145
						c24.801,1.326,48.07,4.231,65.524,8.177c21.648,4.896,30.711,10.225,30.306,17.818c-0.406,7.593-9.985,11.928-32.032,14.487
						C852.188,2664.322,839.132,2664.967,824.937,2664.967z M712.614,2638.814c6.631,4.459,35.149,12.421,85.019,15.084
						c49.865,2.673,79.074-2.206,86.141-5.937c-6.629-4.459-35.147-12.418-85.017-15.084
						C748.879,2630.208,719.683,2635.09,712.614,2638.814z"/>
					<path style="fill:#FFFFFF;" d="M824.996,2664.96c-9.043,0-18.416-0.255-27.917-0.762c-14.394-0.769-28.182-2.055-40.982-3.825
						c-5.459-0.759-10.789-1.618-15.847-2.562c-2.51-0.473-4.891-0.957-7.171-1.451l2.179-10.081
						c2.196,0.473,4.49,0.937,6.896,1.394c4.888,0.91,10.059,1.746,15.358,2.481c12.51,1.729,26.01,2.989,40.117,3.741
						c10.445,0.557,20.724,0.806,30.56,0.739c4.417-0.04,8.687-0.128,12.789-0.282l0.289-0.017
						c6.72-0.269,12.865-0.695,18.338-1.273c3.177-0.329,6.09-0.705,8.667-1.118l1.629,10.188c-2.762,0.44-5.865,0.843-9.221,1.192
						c-5.688,0.598-12.06,1.041-18.929,1.316l-0.306,0.017c-4.276,0.158-8.644,0.252-13.174,0.292
						C827.186,2664.957,826.093,2664.96,824.996,2664.96z"/>
				</g>
			</g>
			<g>
				
					<linearGradient id="SVGID_00000130624358872627279390000013963746267397931168_" gradientUnits="userSpaceOnUse" x1="6783.021" y1="3219.6892" x2="6857.4053" y2="3219.6892" gradientTransform="matrix(1 0 0 1 -6108.8896 0)">
					<stop  offset="0" style="stop-color:#2B3582"/>
					<stop  offset="1" style="stop-color:#150E42"/>
				</linearGradient>
				<path style="fill:url(#SVGID_00000130624358872627279390000013963746267397931168_);" d="M748.515,3246.175
					c0.008-0.554-0.028-1.115-0.171-1.68c-8.378-33.214-49.96-53.903-49.96-53.903l-16.477,1.292
					c-9.474,29.275-8.256,47.229-6.735,55.227c0.042,0.224,0.11,0.437,0.17,0.654
					C688.934,3248.979,716.911,3249.772,748.515,3246.175z"/>
				
					<linearGradient id="SVGID_00000099620000444510061360000011496238452511081916_" gradientUnits="userSpaceOnUse" x1="6969.2383" y1="3131.937" x2="6698.6265" y2="3344.4221" gradientTransform="matrix(1 0 0 1 -6108.8896 0)">
					<stop  offset="0" style="stop-color:#53D8FF"/>
					<stop  offset="1" style="stop-color:#3840F7"/>
				</linearGradient>
				<path style="fill:url(#SVGID_00000099620000444510061360000011496238452511081916_);" d="M675.342,3247.764
					c0.734,2.671,2.705,4.75,5.229,5.281c19.335,4.066,50.066,0.794,62.969-0.893c2.846-0.372,4.927-3.005,4.975-5.977
					C716.911,3249.772,688.934,3248.979,675.342,3247.764z"/>
				<g>
					
						<linearGradient id="SVGID_00000015332326375486020070000003057326742739972270_" gradientUnits="userSpaceOnUse" x1="7336.6392" y1="1901.785" x2="7049.8809" y2="2198.8772" gradientTransform="matrix(1 0 0 1 -6108.8896 0)">
						<stop  offset="0" style="stop-color:#2B3582"/>
						<stop  offset="1" style="stop-color:#150E42"/>
					</linearGradient>
					<path style="fill:url(#SVGID_00000015332326375486020070000003057326742739972270_);" d="M915.498,2175.67l108.536-39.397
						l8.363,17.521l-104.328,39.313C928.069,2193.108,913.56,2191.817,915.498,2175.67z"/>
					
						<linearGradient id="SVGID_00000063632770113373205430000001542269318656050574_" gradientUnits="userSpaceOnUse" x1="7191.7031" y1="2086.8032" x2="7049.6162" y2="2249.5569" gradientTransform="matrix(1 0 0 1 -6108.8896 0)">
						<stop  offset="0" style="stop-color:#FDF53F"/>
						<stop  offset="1" style="stop-color:#D93C65"/>
					</linearGradient>
					<path style="fill:url(#SVGID_00000063632770113373205430000001542269318656050574_);" d="M1024.034,2136.273
						c-3.196,9.688,8.363,17.521,8.363,17.521l19.683-13.93c-1.051-2.762-1.701-5.364-2.077-7.679L1024.034,2136.273z"/>
					
						<linearGradient id="SVGID_00000021833898756244234640000005297623762974118333_" gradientUnits="userSpaceOnUse" x1="7235.2012" y1="2042.9518" x2="7160.2827" y2="2139.8289" gradientTransform="matrix(1 0 0 1 -6108.8896 0)">
						<stop  offset="0" style="stop-color:#53D8FF"/>
						<stop  offset="1" style="stop-color:#3840F7"/>
					</linearGradient>
					<path style="fill:url(#SVGID_00000021833898756244234640000005297623762974118333_);" d="M1050.004,2132.186
						c0.376,2.315,1.026,4.917,2.077,7.679l14.547-10.296L1050.004,2132.186z"/>
				</g>
				
					<linearGradient id="SVGID_00000074427148938974420800000008609354648586989194_" gradientUnits="userSpaceOnUse" x1="6683.2773" y1="2709.3281" x2="6782.4766" y2="2709.3281" gradientTransform="matrix(1 0 0 1 -6108.8896 0)">
					<stop  offset="0" style="stop-color:#F9B776"/>
					<stop  offset="1" style="stop-color:#F47960"/>
				</linearGradient>
				<path style="fill:url(#SVGID_00000074427148938974420800000008609354648586989194_);" d="M610.092,2658.202
					c-10.177,10.862-25.161,20.248-35.705,26.102c15.746,19.464,37.054,38.956,65.261,58.034l8.073,18.116l25.866-31.001
					C673.587,2729.453,627.174,2706.357,610.092,2658.202z"/>
				
					<linearGradient id="SVGID_00000163763278124451773200000008696669849192615842_" gradientUnits="userSpaceOnUse" x1="6803.7065" y1="3135.0061" x2="6789.498" y2="3259.01" gradientTransform="matrix(1 0 0 1 -6108.8896 0)">
					<stop  offset="0" style="stop-color:#F9B776"/>
					<stop  offset="1" style="stop-color:#F47960"/>
				</linearGradient>
				<path style="fill:url(#SVGID_00000163763278124451773200000008696669849192615842_);" d="M675.282,3167.341l6.978,33.595
					c0.512,2.462,2.403,4.306,4.694,4.521c2.805,0.263,6.797,0.417,10.812-0.173c3.6-0.529,6.108-4.187,5.469-8.114l-4.851-29.829
					H675.282z"/>
				
					<linearGradient id="SVGID_00000029767593717560501040000015225485671732757400_" gradientUnits="userSpaceOnUse" x1="7017.311" y1="3193.1599" x2="6746.6982" y2="3405.6455" gradientTransform="matrix(1 0 0 1 -6108.8896 0)">
					<stop  offset="0" style="stop-color:#53D8FF"/>
					<stop  offset="1" style="stop-color:#3840F7"/>
				</linearGradient>
				<path style="fill:url(#SVGID_00000029767593717560501040000015225485671732757400_);" d="M819.875,3247.427
					c-18.198-0.509-27.611-2.653-32.477-4.641c-0.011,1.809-0.001,3.651,0.058,5.559c0.063,2.038,1.572,3.666,3.429,3.654
					l99.918-0.645c3.189-0.021,5.052-3.719,3.67-6.643C881.373,3245.793,848.006,3248.214,819.875,3247.427z"/>
				
					<linearGradient id="SVGID_00000039134502154553541360000006987784986999345073_" gradientUnits="userSpaceOnUse" x1="6896.2881" y1="3221.6677" x2="7003.3638" y2="3221.6677" gradientTransform="matrix(1 0 0 1 -6108.8896 0)">
					<stop  offset="0" style="stop-color:#2B3582"/>
					<stop  offset="1" style="stop-color:#150E42"/>
				</linearGradient>
				<path style="fill:url(#SVGID_00000039134502154553541360000006987784986999345073_);" d="M894.474,3244.71
					c-0.121-0.254-0.224-0.514-0.396-0.754c-8.824-12.33-31.299-36.881-75.709-47.531l-21.305-0.672c0,0-9.487,16.489-9.666,47.031
					c4.866,1.989,14.279,4.132,32.477,4.641C848.006,3248.214,881.373,3245.793,894.474,3244.71z"/>
				
					<linearGradient id="SVGID_00000000185788060791121030000000865552481638888112_" gradientUnits="userSpaceOnUse" x1="6919.4468" y1="3148.2678" x2="6905.2383" y2="3272.2717" gradientTransform="matrix(1 0 0 1 -6108.8896 0)">
					<stop  offset="0" style="stop-color:#F9B776"/>
					<stop  offset="1" style="stop-color:#F47960"/>
				</linearGradient>
				<path style="fill:url(#SVGID_00000000185788060791121030000000865552481638888112_);" d="M793.114,3163.466
					c0.237,1.588,3.157,25.724,4.287,35.082c0.269,2.224,1.879,3.945,3.91,4.188c3.628,0.433,9.498,0.828,14.634-0.225
					c2.771-0.568,4.777-3.23,4.777-6.325v-37.886L793.114,3163.466z"/>
				
					<linearGradient id="SVGID_00000106147465329426184710000011986162480931958660_" gradientUnits="userSpaceOnUse" x1="7107.4766" y1="2551.4192" x2="6653.0317" y2="3256.5938" gradientTransform="matrix(1 0 0 1 -6108.8896 0)">
					<stop  offset="0" style="stop-color:#2B3582"/>
					<stop  offset="1" style="stop-color:#150E42"/>
				</linearGradient>
				<path style="fill:url(#SVGID_00000106147465329426184710000011986162480931958660_);" d="M776.021,2722.995
					c0,0,51.386,195.284,50.457,441.029c-0.017,4.48-3.163,8.347-7.547,9.271c-6.461,1.361-15.958,2.976-23.82,2.756
					c-4.197-0.118-7.706-3.23-8.412-7.369c-7.205-42.253-48.553-280.286-72.112-318.93c0,0-15.5,212.003-10.545,321.991
					c0.123,2.735-1.879,5.107-4.599,5.422c-4.125,0.477-10.725,0.839-19.123-0.053c-3.189-0.339-5.761-2.749-6.216-5.923
					c-5.132-35.76-34.672-248.616-33.416-401.95c0.071-8.647,22.867-46.244,22.867-46.244H776.021z"/>
				
					<linearGradient id="SVGID_00000126308188319884766020000008244665736268976025_" gradientUnits="userSpaceOnUse" x1="6905.9321" y1="2367.6682" x2="6482.8271" y2="3296.147" gradientTransform="matrix(1 0 0 1 -6108.8896 0)">
					<stop  offset="0" style="stop-color:#CB236D"/>
					<stop  offset="1" style="stop-color:#4C246D"/>
				</linearGradient>
				<path style="fill:url(#SVGID_00000126308188319884766020000008244665736268976025_);" d="M944.053,2302.469
					c-22.556,41.984-59.998,84.826-120.917,96.308c-56.24,10.599-157.229,23.697-197.822,28.811
					c-12.207,1.538-23.372,7.556-31.417,16.866c-31.903,36.919-101.908,137.998-19.509,239.85
					c10.544-5.854,25.528-15.24,35.705-26.102c-9.116-25.698-9.863-58.538,9.242-98.808c0.653,3.191,1.46,6.352,2.441,9.461
					c26.332,83.422,27.737,152.843,27.678,168.842c-0.008,2.173,1.296,4.129,3.313,4.937c34.656,13.888,101.367,5.622,123.761,2.285
					c4.106-0.612,6.869-4.435,6.301-8.547c-10.991-79.625,45.415-210.611,60.313-243.419c2.18-4.8,6.02-8.654,10.822-10.827
					c85.193-38.54,122.231-97.866,137.246-151.31C978.222,2313.377,958.09,2305.763,944.053,2302.469z"/>
				
					<linearGradient id="SVGID_00000052106095384538962860000004626417828296701878_" gradientUnits="userSpaceOnUse" x1="7147.0718" y1="2193.248" x2="7048.1514" y2="2332.8142" gradientTransform="matrix(1 0 0 1 -6108.8896 0)">
					<stop  offset="0" style="stop-color:#F9B776"/>
					<stop  offset="1" style="stop-color:#F47960"/>
				</linearGradient>
				<path style="fill:url(#SVGID_00000052106095384538962860000004626417828296701878_);" d="M991.209,2330.816
					c18.2-64.777,4.045-120.912,4.045-120.912h-19.409c0,0-6.641,45.748-31.793,92.565
					C958.09,2305.763,978.222,2313.377,991.209,2330.816z"/>
				
					<linearGradient id="SVGID_00000132050321021255030710000005810186244692287367_" gradientUnits="userSpaceOnUse" x1="7105.1904" y1="2163.5637" x2="7006.27" y2="2303.1299" gradientTransform="matrix(1 0 0 1 -6108.8896 0)">
					<stop  offset="0" style="stop-color:#F9B776"/>
					<stop  offset="1" style="stop-color:#F47960"/>
				</linearGradient>
				<path style="fill:url(#SVGID_00000132050321021255030710000005810186244692287367_);" d="M982.676,2220.234
					c0,0-29.55-38.274-19.946-58.211c9.604-19.938,42.515-18,42.515-18l4.615,15.624c1.214,4.111,1.051,8.505-0.466,12.514
					l-18.184,48.073H982.676z"/>
				
					<linearGradient id="SVGID_00000005970558550582339580000003637138566911176331_" gradientUnits="userSpaceOnUse" x1="6835.0962" y1="2332.7273" x2="6780.8447" y2="2567.1716" gradientTransform="matrix(1 0 0 1 -6108.8896 0)">
					<stop  offset="0" style="stop-color:#F9B776"/>
					<stop  offset="1" style="stop-color:#F47960"/>
				</linearGradient>
				<path style="fill:url(#SVGID_00000005970558550582339580000003637138566911176331_);" d="M685.213,2350.984l-6.679,68.24
					c0,0,38.389,11.562,66.31-8.138l-19.628-62.02L685.213,2350.984z"/>
				<g>
					
						<linearGradient id="SVGID_00000002360759991380507610000015408570601894343561_" gradientUnits="userSpaceOnUse" x1="3047.7292" y1="4650.7256" x2="2951.4802" y2="4778.0552" gradientTransform="matrix(0.6854 -0.7281 0.7281 0.6854 -4757.8906 1318.7853)">
						<stop  offset="0" style="stop-color:#F9B776"/>
						<stop  offset="1" style="stop-color:#F47960"/>
					</linearGradient>
					<path style="fill:url(#SVGID_00000002360759991380507610000015408570601894343561_);" d="M729.757,2273.207
						c0.924,0.869,38.993,75.629,38.993,75.629l-43.148,20.83l-46.609-65.496C678.992,2304.17,714.289,2258.646,729.757,2273.207z"
						/>
					
						<linearGradient id="SVGID_00000089555669060102201600000014532590441834433432_" gradientUnits="userSpaceOnUse" x1="2974.2224" y1="4681.3037" x2="3089.1934" y2="4681.3037" gradientTransform="matrix(0.6854 -0.7281 0.7281 0.6854 -4757.8906 1318.7853)">
						<stop  offset="0" style="stop-color:#2B3582"/>
						<stop  offset="1" style="stop-color:#150E42"/>
					</linearGradient>
					<path style="fill:url(#SVGID_00000089555669060102201600000014532590441834433432_);" d="M698.084,2305.983
						c-0.77,1.991-0.581,4.214,0.517,6.045l21.52,35.873c0.326,0.544,0.715,1.037,1.18,1.469c2.562,2.384,11.327,9.32,18.103-0.123
						c5.775-8.048,11.194-15.365,17-18.383c3.391-1.762,7.563-0.355,9.285,3.057c3.546,7.027,10.414,21.352,14.728,34.936
						c1.081,3.405-0.676,7.06-3.987,8.401c-8.737,3.54-26.005,9.941-41.328,12.056c-2.517,0.348-5.009-0.714-6.507-2.767
						c-6.592-9.032-25.174-34.271-31.515-40.588c-5.892-5.869-16.766-3.656-21.666-2.249c-1.86,0.535-3.84,0.277-5.498-0.721
						c-4.971-2.994-13.646-10.451-5.71-23.075c1.973-3.139,0.967-7.32-2.13-9.357c-5.55-3.651-11.573-10.504-5.835-21.602
						c5.808-11.235,16.182-12.244,23.246-11.38c3.126,0.382,6.299-1.257,7.499-4.169c0.533-1.295,1.588-2.399,3.551-2.797
						c3.703-0.751,6.133-4.138,5.407-7.845c-1.246-6.358-0.308-14.617,9.843-20.198c18.617-10.236,34.925,6.442,39.072,20.522
						c4.147,14.08-16.669,24.03-29.762,25.69C705.479,2290,700.206,2300.497,698.084,2305.983z"/>
					
						<linearGradient id="SVGID_00000140016026152369495370000015006133259641187986_" gradientUnits="userSpaceOnUse" x1="2906.7617" y1="4751.5615" x2="2983.9617" y2="4672.356" gradientTransform="matrix(0.6854 -0.7281 0.7281 0.6854 -4757.8906 1318.7853)">
						<stop  offset="0" style="stop-color:#F9B776"/>
						<stop  offset="1" style="stop-color:#F47960"/>
					</linearGradient>
					<path style="fill:url(#SVGID_00000140016026152369495370000015006133259641187986_);" d="M705.163,2359.135
						c0,0-8.278-24.223-18.875-23.334c-10.597,0.889-18.937,11.446-5.804,23.313
						C696.819,2373.876,705.163,2359.135,705.163,2359.135z"/>
				</g>
				
					<linearGradient id="SVGID_00000151521971083192664200000001642571247802513068_" gradientUnits="userSpaceOnUse" x1="837.5317" y1="2230.2751" x2="503.9834" y2="2646.3511">
					<stop  offset="0" style="stop-color:#FDF53F"/>
					<stop  offset="1" style="stop-color:#D93C65"/>
				</linearGradient>
				<path style="fill:url(#SVGID_00000151521971083192664200000001642571247802513068_);" d="M615.84,2553.156
					c-13.968-38.226-8.901-84.385-8.848-84.847l3.849,0.44c-0.051,0.453-5.011,45.726,8.639,83.076L615.84,2553.156z"/>
				
					<linearGradient id="SVGID_00000112628599310000050580000015616682438084100997_" gradientUnits="userSpaceOnUse" x1="875.5479" y1="2380.0808" x2="669.2293" y2="2885.5608">
					<stop  offset="0" style="stop-color:#53D8FF"/>
					<stop  offset="1" style="stop-color:#3840F7"/>
				</linearGradient>
				<path style="fill:url(#SVGID_00000112628599310000050580000015616682438084100997_);" d="M712.698,2844.774
					c-0.861,0-1.648-0.578-1.873-1.451c-4.261-16.435-36.17-34.497-36.492-34.677c-0.933-0.523-1.266-1.704-0.742-2.638
					c0.524-0.933,1.699-1.267,2.638-0.741c1.372,0.769,33.673,19.054,38.346,37.084c0.268,1.036-0.354,2.094-1.389,2.362
					C713.024,2844.754,712.859,2844.774,712.698,2844.774z"/>
			</g>
		</g>
	</g>
</g>
</svg>
